<?xml version="1.0" encoding="utf-8"?>
<!-- Generator: Adobe Illustrator 19.2.1, SVG Export Plug-In . SVG Version: 6.00 Build 0)  -->
<svg version="1.1" id="Capa_2" xmlns="http://www.w3.org/2000/svg" xmlns:xlink="http://www.w3.org/1999/xlink" x="0px" y="0px"
	 viewBox="0 0 223.9 60.8" style="enable-background:new 0 0 223.9 60.8;" xml:space="preserve">
<style type="text/css">
	.st0{fill:#D3D3D3;}
	.st1{fill:#E98732;}
</style>
<g>
	<path class="st0" d="M22.5,16.7H9.9v10.5H1.5v-25h8.3v8.9h12.6V2.2h8.3v25h-8.3V16.7z"/>
	<path class="st1" d="M35.5,2.2h8.3V17c0,4.1,1.9,5.4,5.7,5.4s5.7-1.3,5.7-5.4V2.2h8.3v16.2c0,6.9-5.2,9.6-14,9.6
		c-8.9,0-14-2.7-14-9.6V2.2z"/>
	<path class="st1" d="M68.3,2.2h12.2l5.7,16.5h0.1l5.7-16.5h12.2v25h-7.8V8.5h-0.1l-6.6,18.7h-6.9L76.2,8.5h-0.1v18.7h-7.8V2.2z"/>
	<path class="st1" d="M109.1,2.2h12.2l5.7,16.5h0.1l5.7-16.5H145v25h-7.8V8.5h-0.1l-6.6,18.7h-6.9L117,8.5H117v18.7h-7.8V2.2z"/>
	<path class="st1" d="M150,2.2h25v5.4h-16.7v4.5H174v5.2h-15.6v4.5H175v5.4h-25V2.2z"/>
	<path class="st1" d="M178.5,2.2h20c6.2,0,8.4,2.8,8.4,7c0,3.4-1.8,5.1-4,5.7v0.1c1.6,0.5,2.8,1.8,3,4.5c0.4,4.9,0.5,6.5,1.6,7.8
		h-9.1c-0.5-1.1-0.5-2.6-0.5-3.7c0-3.9-1.3-4.6-3.4-4.6h-7.6v8.3h-8.3V2.2z M186.9,13.2h8c2.1,0,3.1-1,3.1-2.8c0-1.6-1-2.7-3.1-2.7
		h-8V13.2z"/>
	<path class="st0" d="M1.5,33.2H20c6.8,0,9.2,3.6,9.2,8.3c0,4.1-2.1,8.3-8.8,8.3H9.9v8.3H1.5V33.2z M9.9,44.7h7.4
		c2.3,0,3.3-0.9,3.3-3.2c0-2.2-1-3.2-3.3-3.2H9.9V44.7z"/>
	<path class="st1" d="M32.6,33.2H41v19.2h15.2v5.8H32.6V33.2z"/>
	<path class="st1" d="M66.6,33.2h10.2l10.7,25h-8.9l-1.5-4.1H66.2l-1.5,4.1h-8.9L66.6,33.2z M71.7,39.5L71.7,39.5l-3.5,9.5h7
		L71.7,39.5z"/>
	<path class="st1" d="M106.3,40.5c-0.3-1.7-1.6-2.9-5.4-2.9c-2.8,0-4.3,0.8-4.3,2.5c0,0.8,0.6,1.3,1.9,1.5c2.1,0.4,8.5,1.3,11,1.7
		c4.7,0.8,7.5,2.7,7.5,7.1c0,8.5-11,8.5-14.4,8.5c-8.5,0-14.6-1.5-15.1-8.5h9.9c0.2,1.9,1.3,3.1,5.6,3.1c2.1,0,4.4-0.5,4.4-2.6
		c0-1.3-1-1.8-4-2.2l-8.3-1.3c-5.1-0.7-7.1-3.3-7.1-7.1c0-3.3,2-7.9,13-7.9c9.1,0,14.5,2.2,15.1,8.1H106.3z"/>
	<path class="st1" d="M117.6,33.2h26.7v5.6h-9.2v19.4h-8.3V38.8h-9.2V33.2z"/>
	<path class="st1" d="M146.9,33.2h8.3v25h-8.3V33.2z"/>
	<path class="st1" d="M190.6,48.6c-1,5.4-4,10.4-15.8,10.4c-10.6,0-15.7-4.6-15.7-13.3c0-8.4,4.9-13.3,15.7-13.3
		c7.7,0,13.9,1.7,15.8,10.4h-9.3c-0.5-1.8-1.7-4.8-6.4-4.8c-5.2,0-6.9,3.5-6.9,7.7c0,4.1,1.5,7.7,6.9,7.7c3.8,0,6-1.9,6.5-4.8H190.6
		z"/>
	<path class="st1" d="M211.3,40.5c-0.3-1.7-1.6-2.9-5.4-2.9c-2.8,0-4.3,0.8-4.3,2.5c0,0.8,0.6,1.3,1.9,1.5c2.1,0.4,8.5,1.3,11,1.7
		c4.7,0.8,7.5,2.7,7.5,7.1c0,8.5-11,8.5-14.4,8.5c-8.5,0-14.6-1.5-15.1-8.5h9.9c0.2,1.9,1.3,3.1,5.6,3.1c2.1,0,4.4-0.5,4.4-2.6
		c0-1.3-1-1.8-4-2.2l-8.3-1.3c-5.1-0.7-7.1-3.3-7.1-7.1c0-3.3,2-7.9,13-7.9c9.1,0,14.5,2.2,15.1,8.1H211.3z"/>
</g>
</svg>
