<?xml version="1.0" encoding="utf-8"?>
<!-- Generator: Adobe Illustrator 19.2.1, SVG Export Plug-In . SVG Version: 6.00 Build 0)  -->
<svg version="1.1" id="Capa_2" xmlns="http://www.w3.org/2000/svg" xmlns:xlink="http://www.w3.org/1999/xlink" x="0px" y="0px"
	 viewBox="0 0 223.9 61" style="enable-background:new 0 0 223.9 61;" xml:space="preserve">
<style type="text/css">
	.st0{fill:#C6C6C6;}
	.st1{fill:#FFFFFF;}
	.st2{fill:#C4C4C4;}
</style>
<g>
	<path class="st0" d="M30.3,16.2H17.7v10.5H9.3v-25h8.3v8.9h12.6V1.7h8.3v25h-8.3V16.2z"/>
	<path class="st1" d="M43.3,1.7h8.3v14.8c0,4.1,1.9,5.4,5.7,5.4s5.7-1.3,5.7-5.4V1.7h8.3v16.2c0,6.9-5.2,9.6-14,9.6s-14-2.7-14-9.6
		V1.7z"/>
	<path class="st1" d="M76.1,1.7h12.2L94,18.2H94l5.7-16.5h12.2v25h-7.8V8H104l-6.6,18.7h-6.9L84,8h-0.1v18.7h-7.8V1.7z"/>
	<path class="st1" d="M117,1.7h12.2l5.7,16.5h0.1l5.7-16.5h12.2v25H145V8h-0.1l-6.6,18.7h-6.9L124.9,8h-0.1v18.7H117V1.7z"/>
	<path class="st1" d="M157.8,1.7h25v5.4h-16.7v4.5h15.6v5.2h-15.6v4.5h16.7v5.4h-25V1.7z"/>
	<path class="st1" d="M186.4,1.7h20c6.2,0,8.4,2.8,8.4,7c0,3.4-1.8,5.1-4,5.7v0.1c1.6,0.5,2.8,1.8,3,4.5c0.4,4.9,0.5,6.5,1.6,7.8
		h-9.1c-0.5-1.1-0.5-2.6-0.5-3.7c0-3.9-1.3-4.6-3.4-4.6h-7.6v8.3h-8.3V1.7z M194.7,12.7h8c2.1,0,3.1-1,3.1-2.8c0-1.6-1-2.7-3.1-2.7
		h-8V12.7z"/>
	<path class="st2" d="M2.2,32.7h18.5c6.8,0,9.2,3.6,9.2,8.3c0,4.1-2.1,8.3-8.8,8.3H10.6v8.3H2.2V32.7z M10.6,44.2H18
		c2.3,0,3.3-0.9,3.3-3.2s-1-3.2-3.3-3.2h-7.4V44.2z"/>
	<path class="st1" d="M33.4,32.7h8.3v19.2h15.2v5.8H33.4V32.7z"/>
	<path class="st1" d="M67.3,32.7h10.2l10.7,25h-8.9l-1.5-4.1H66.9l-1.5,4.1h-8.9L67.3,32.7z M72.4,39L72.4,39l-3.5,9.5h7L72.4,39z"
		/>
	<path class="st1" d="M107.1,40c-0.3-1.7-1.6-2.9-5.4-2.9c-2.8,0-4.3,0.8-4.3,2.5c0,0.8,0.6,1.3,1.9,1.5c2.1,0.4,8.5,1.3,11,1.7
		c4.7,0.8,7.5,2.7,7.5,7.1c0,8.5-11,8.5-14.4,8.5c-8.5,0-14.6-1.5-15.1-8.5h9.9c0.2,1.9,1.3,3.1,5.6,3.1c2.1,0,4.4-0.5,4.4-2.6
		c0-1.3-1.1-1.8-4-2.2l-8.3-1.3c-5.1-0.7-7.1-3.3-7.1-7.1c0-3.3,2-7.9,13-7.9c9.1,0,14.5,2.2,15.1,8.1H107.1z"/>
	<path class="st1" d="M118.3,32.7H145v5.6h-9.2v19.4h-8.3V38.3h-9.2V32.7z"/>
	<path class="st1" d="M147.6,32.7h8.3v25h-8.3V32.7z"/>
	<path class="st1" d="M191.3,48.1c-1,5.4-4,10.4-15.8,10.4c-10.6,0-15.7-4.6-15.7-13.3c0-8.4,4.9-13.3,15.7-13.3
		c7.7,0,13.9,1.7,15.8,10.4H182c-0.5-1.8-1.7-4.8-6.4-4.8c-5.2,0-6.9,3.5-6.9,7.7c0,4.1,1.5,7.7,6.9,7.7c3.8,0,6-1.9,6.5-4.8H191.3z
		"/>
	<path class="st1" d="M212.1,40c-0.3-1.7-1.6-2.9-5.4-2.9c-2.8,0-4.3,0.8-4.3,2.5c0,0.8,0.6,1.3,1.9,1.5c2.1,0.4,8.5,1.3,11,1.7
		c4.7,0.8,7.5,2.7,7.5,7.1c0,8.5-11,8.5-14.4,8.5c-8.5,0-14.6-1.5-15.1-8.5h9.9c0.2,1.9,1.3,3.1,5.6,3.1c2.1,0,4.4-0.5,4.4-2.6
		c0-1.3-1.1-1.8-4-2.2l-8.3-1.3c-5.1-0.7-7.1-3.3-7.1-7.1c0-3.3,2-7.9,13-7.9c9.1,0,14.5,2.2,15.1,8.1H212.1z"/>
</g>
</svg>
